<?xml version="1.0" encoding="UTF-8" standalone="no"?>
<!-- Created with Inkscape (http://www.inkscape.org/) -->

<svg
   xmlns:dc="http://purl.org/dc/elements/1.1/"
   xmlns:cc="http://creativecommons.org/ns#"
   xmlns:rdf="http://www.w3.org/1999/02/22-rdf-syntax-ns#"
   xmlns:svg="http://www.w3.org/2000/svg"
   xmlns="http://www.w3.org/2000/svg"
   xmlns:xlink="http://www.w3.org/1999/xlink"
   xmlns:sodipodi="http://sodipodi.sourceforge.net/DTD/sodipodi-0.dtd"
   xmlns:inkscape="http://www.inkscape.org/namespaces/inkscape"
   width="76.822914mm"
   height="60.863979mm"
   viewBox="0 0 76.82291 60.863981"
   version="1.1"
   id="svg8"
   sodipodi:docname="logo-only.svg"
   inkscape:version="0.92.4 (5da689c313, 2019-01-14)">
  <defs
     id="defs2">
    <clipPath
       clipPathUnits="userSpaceOnUse"
       id="clipPath16">
      <path
         d="M 0,192 H 192 V 0 H 0 Z"
         id="path18"
         inkscape:connector-curvature="0" />
    </clipPath>
    <clipPath
       clipPathUnits="userSpaceOnUse"
       id="clipPath26">
      <path
         d="M -4.88281e-4,192 H 192 V -4.88281e-4 H -4.88281e-4 Z"
         id="path28"
         inkscape:connector-curvature="0" />
    </clipPath>
    <clipPath
       clipPathUnits="userSpaceOnUse"
       id="clipPath34">
      <path
         d="M -4.88281e-4,192 H 192 V -4.88281e-4 H -4.88281e-4 Z"
         id="path36"
         inkscape:connector-curvature="0" />
    </clipPath>
    <clipPath
       clipPathUnits="userSpaceOnUse"
       id="clipPath38">
      <path
         d="M 0,192 H 192 V 0 H 0 Z"
         id="path40"
         inkscape:connector-curvature="0" />
    </clipPath>
    <clipPath
       clipPathUnits="userSpaceOnUse"
       id="clipPath42">
      <path
         d="M 0,192 H 192 V 0 H 0 Z"
         id="path44"
         inkscape:connector-curvature="0" />
    </clipPath>
    <clipPath
       clipPathUnits="userSpaceOnUse"
       id="clipPath116">
      <path
         d="M 0,192 H 192 V -4.88281e-4 H 0 Z"
         id="path118"
         inkscape:connector-curvature="0" />
    </clipPath>
    <clipPath
       clipPathUnits="userSpaceOnUse"
       id="clipPath120">
      <path
         d="M 0,192 H 192 V 4.88281e-4 H 0 Z"
         id="path122"
         inkscape:connector-curvature="0" />
    </clipPath>
    <clipPath
       clipPathUnits="userSpaceOnUse"
       id="clipPath124">
      <path
         d="M 192,192 H 0 V 0 h 192 z"
         id="path126"
         inkscape:connector-curvature="0" />
    </clipPath>
    <linearGradient
       inkscape:collect="always"
       xlink:href="#linearGradient4786"
       id="linearGradient8537"
       gradientUnits="userSpaceOnUse"
       gradientTransform="translate(-273.13362,643.327)"
       x1="-1103.9506"
       y1="2003.8811"
       x2="-1122.447"
       y2="2050.5542" />
    <linearGradient
       inkscape:collect="always"
       id="linearGradient4786">
      <stop
         style="stop-color:#f3b113;stop-opacity:1"
         offset="0"
         id="stop4782" />
      <stop
         style="stop-color:#f3b113;stop-opacity:0"
         offset="1"
         id="stop4784" />
    </linearGradient>
  </defs>
  <sodipodi:namedview
     id="base"
     pagecolor="#3d3d3d"
     bordercolor="#666666"
     borderopacity="1.0"
     inkscape:pageopacity="0"
     inkscape:pageshadow="2"
     inkscape:zoom="0.69999999"
     inkscape:cx="258.34087"
     inkscape:cy="76.521848"
     inkscape:document-units="px"
     inkscape:current-layer="layer2"
     showgrid="false"
     units="mm"
     inkscape:showpageshadow="false"
     inkscape:window-width="1366"
     inkscape:window-height="705"
     inkscape:window-x="-8"
     inkscape:window-y="-8"
     inkscape:window-maximized="1"
     inkscape:object-paths="true"
     fit-margin-top="0"
     fit-margin-left="0"
     fit-margin-right="0"
     fit-margin-bottom="0" />
  <metadata
     id="metadata5">
    <rdf:RDF>
      <cc:Work
         rdf:about="">
        <dc:format>image/svg+xml</dc:format>
        <dc:type
           rdf:resource="http://purl.org/dc/dcmitype/StillImage" />
        <dc:title></dc:title>
      </cc:Work>
    </rdf:RDF>
  </metadata>
  <g
     inkscape:groupmode="layer"
     id="layer2"
     inkscape:label="Layer 2"
     transform="translate(-73.841614,68.123512)">
    <g
       id="g8531"
       transform="matrix(3.6385148,0,0,3.6385148,1446.1548,-2002.7379)">
      <g
         id="g8517">
        <path
           style="opacity:1;fill:#ffffff;fill-opacity:1;fill-rule:nonzero;stroke:none;stroke-width:1.99999988;stroke-linecap:round;stroke-linejoin:round;stroke-miterlimit:4;stroke-dasharray:none;stroke-dashoffset:0;stroke-opacity:1;paint-order:stroke fill markers"
           d="m -1420.4922,2637.123 v 5.1602 7.1699 h 14.0352 11.039 c 1.3844,0 2.4981,1.1158 2.4981,2.5 0,1.3846 -1.1137,2.498 -2.4981,2.498 h -11.039 -14.0352 v 9.5528 h 5.6992 7.6934 3.3457 c 1.3845,0 2.5,1.1135 2.5,2.498 0,1.3844 -1.1155,2.5 -2.5,2.5 h -3.3457 -8.7266 c 0,0 0.01,0 0.012,0.01 h -4.6777 v 7.1582 2.3945 h 1.9649 7.6914 3.3476 c 1.3844,0 2.4981,1.1136 2.4981,2.498 0,1.3845 -1.1137,2.5 -2.4981,2.5 h -3.3476 -7.6914 -1.8946 -0.07 v 1.6133 c 0,2.9026 2.2568,5.1582 5.1602,5.1582 h 39.6777 c 2.9034,0 5.1602,-2.2548 5.1602,-5.1582 v -4.0469 -0.3457 c 0.048,-1.1043 0.8149,-2.0462 1.8867,-2.3164 v -22.7656 c -1.1472,-0.2894 -1.9345,-1.3432 -1.8867,-2.5254 v -16.0469 h -5.1602 -39.6777 z m 15.8086,2.7618 h 18.375 c 1.108,0 2,0.892 2,2 0,1.1079 -0.892,2 -2,2 h -18.375 c -1.108,0 -2,-0.8921 -2,-2 0,-1.108 0.892,-2 2,-2 z"
           id="path8511"
           inkscape:connector-curvature="0"
           sodipodi:nodetypes="ccccssscccccsssccccccccsssccccsssscccccccccsssssss"
           transform="matrix(0.26458333,0,0,0.26458333,0,-164.70833)" />
        <path
           style="color:#000000;font-style:normal;font-variant:normal;font-weight:normal;font-stretch:normal;font-size:medium;line-height:normal;font-family:sans-serif;font-variant-ligatures:normal;font-variant-position:normal;font-variant-caps:normal;font-variant-numeric:normal;font-variant-alternates:normal;font-feature-settings:normal;text-indent:0;text-align:start;text-decoration:none;text-decoration-line:none;text-decoration-style:solid;text-decoration-color:#000000;letter-spacing:normal;word-spacing:normal;text-transform:none;writing-mode:lr-tb;direction:ltr;text-orientation:mixed;dominant-baseline:auto;baseline-shift:baseline;text-anchor:start;white-space:normal;shape-padding:0;clip-rule:nonzero;display:inline;overflow:visible;visibility:visible;opacity:1;isolation:auto;mix-blend-mode:normal;color-interpolation:sRGB;color-interpolation-filters:linearRGB;solid-color:#000000;solid-opacity:1;vector-effect:none;fill:url(#linearGradient8537);fill-opacity:1;fill-rule:nonzero;stroke:none;stroke-width:5;stroke-linecap:butt;stroke-linejoin:miter;stroke-miterlimit:4;stroke-dasharray:none;stroke-dashoffset:0;stroke-opacity:1;color-rendering:auto;image-rendering:auto;shape-rendering:auto;text-rendering:auto;enable-background:accumulate"
           d="m -1385.7461,2648.8457 c -15.3853,13.2688 -15.3442,33.7753 -14.709,41.4824 h 21.4668 c -0.6241,-3.235 -1.5071,-10.047 0.1406,-17.5703 l -6.5878,-5.7812 c -5.047,-4.4291 -5.577,-12.178 -1.17,-17.2403 0.2736,-0.3143 0.5617,-0.6115 0.8594,-0.8906 z m 2.168,12.6816 c 0.3386,0.5488 0.7625,1.0581 1.2597,1.5215 -0.2501,-0.298 -0.6381,-0.7666 -1.2597,-1.5215 z"
           id="path8513"
           transform="matrix(0.26458333,0,0,0.26458333,0,-164.70833)"
           inkscape:connector-curvature="0" />
        <path
           style="color:#000000;font-style:normal;font-variant:normal;font-weight:normal;font-stretch:normal;font-size:medium;line-height:normal;font-family:sans-serif;font-variant-ligatures:normal;font-variant-position:normal;font-variant-caps:normal;font-variant-numeric:normal;font-variant-alternates:normal;font-feature-settings:normal;text-indent:0;text-align:start;text-decoration:none;text-decoration-line:none;text-decoration-style:solid;text-decoration-color:#000000;letter-spacing:normal;word-spacing:normal;text-transform:none;writing-mode:lr-tb;direction:ltr;text-orientation:mixed;dominant-baseline:auto;baseline-shift:baseline;text-anchor:start;white-space:normal;shape-padding:0;clip-rule:nonzero;display:inline;overflow:visible;visibility:visible;opacity:1;isolation:auto;mix-blend-mode:normal;color-interpolation:sRGB;color-interpolation-filters:linearRGB;solid-color:#000000;solid-opacity:1;vector-effect:none;fill:#ffb400;fill-opacity:1;fill-rule:nonzero;stroke:none;stroke-width:5;stroke-linecap:round;stroke-linejoin:round;stroke-miterlimit:4;stroke-dasharray:none;stroke-dashoffset:0;stroke-opacity:1;paint-order:stroke fill markers;color-rendering:auto;image-rendering:auto;shape-rendering:auto;text-rendering:auto;enable-background:accumulate"
           d="m -1422.9941,2632.1152 a 2.5002499,2.5002499 0 0 0 -2.5039,2.502 v 7.664 23.504 10.3789 9.0058 c 0,5.5865 4.5802,10.1641 10.166,10.1641 h 39.6777 c 5.5857,0 10.1563,-4.5785 10.1563,-10.1641 v -3.8691 a 2.5002499,2.5002499 0 0 0 0,-0.1778 v -0.3457 a 2.5002499,2.5002499 0 0 0 -4.9961,0 v 0.3457 4.0469 c 0,2.9034 -2.2568,5.1582 -5.1602,5.1582 h -39.6777 c -2.9034,0 -5.1602,-2.2556 -5.1602,-5.1582 v -1.6133 h 0.07 1.8946 7.6914 3.3476 c 1.3844,0 2.4981,-1.1155 2.4981,-2.5 0,-1.3844 -1.1137,-2.498 -2.4981,-2.498 h -3.3476 -7.6914 -1.9649 v -2.3945 -7.1582 h 4.6777 c 0,0 -0.01,0 -0.012,-0.01 h 8.7266 3.3457 c 1.3845,0 2.5,-1.1156 2.5,-2.5 0,-1.3845 -1.1155,-2.498 -2.5,-2.498 h -3.3457 -7.6934 -5.6992 v -9.5528 h 14.0352 11.039 c 1.3844,0 2.4981,-1.1134 2.4981,-2.498 0,-1.3842 -1.1137,-2.5 -2.4981,-2.5 h -11.039 -14.0352 v -7.1699 -5.1602 h 5.1602 39.6777 5.1602 v 16.0469 a 2.5002499,2.5002499 0 1 0 4.9961,0 v -18.5508 a 2.5002499,2.5002499 0 0 0 -2.4942,-2.5019 h -7.6621 -39.6777 z m 18.3105,7.7696 c -1.108,0 -2,0.892 -2,2 0,1.1079 0.892,2 2,2 h 18.375 c 1.108,0 2,-0.8921 2,-2 0,-1.108 -0.892,-2 -2,-2 z"
           id="path8515"
           transform="matrix(0.26458333,0,0,0.26458333,0,-164.70833)"
           inkscape:connector-curvature="0" />
      </g>
      <g
         id="g8529">
        <path
           style="color:#000000;font-style:normal;font-variant:normal;font-weight:normal;font-stretch:normal;font-size:medium;line-height:normal;font-family:sans-serif;font-variant-ligatures:normal;font-variant-position:normal;font-variant-caps:normal;font-variant-numeric:normal;font-variant-alternates:normal;font-feature-settings:normal;text-indent:0;text-align:start;text-decoration:none;text-decoration-line:none;text-decoration-style:solid;text-decoration-color:#000000;letter-spacing:normal;word-spacing:normal;text-transform:none;writing-mode:lr-tb;direction:ltr;text-orientation:mixed;dominant-baseline:auto;baseline-shift:baseline;text-anchor:start;white-space:normal;shape-padding:0;clip-rule:nonzero;display:inline;overflow:visible;visibility:visible;opacity:1;isolation:auto;mix-blend-mode:normal;color-interpolation:sRGB;color-interpolation-filters:linearRGB;solid-color:#000000;solid-opacity:1;vector-effect:none;fill:#f4b92c;fill-opacity:1;fill-rule:nonzero;stroke:none;stroke-width:1.32291663;stroke-linecap:round;stroke-linejoin:round;stroke-miterlimit:4;stroke-dasharray:none;stroke-dashoffset:0;stroke-opacity:1;paint-order:stroke fill markers;color-rendering:auto;image-rendering:auto;shape-rendering:auto;text-rendering:auto;enable-background:accumulate"
           d="m -366.87245,536.36758 c -1.16603,1.33939 -1.02605,3.38977 0.30929,4.56163 l 5.17912,4.54505 c 1.33533,1.17186 3.37789,1.03682 4.54392,-0.30256 1.16603,-1.33939 1.02605,-3.38977 -0.30929,-4.56163 l -5.17911,-4.54505 c -1.33534,-1.17186 -3.3779,-1.03682 -4.54393,0.30256 z m 0.99384,0.87217 c 0.6993,-0.80327 1.87959,-0.88149 2.68187,-0.17744 l 5.17911,4.54506 c 0.80227,0.70405 0.88297,1.88889 0.18367,2.69216 -0.6993,0.80327 -1.8796,0.8815 -2.68187,0.17745 l -5.17912,-4.54506 c -0.80227,-0.70405 -0.88296,-1.8889 -0.18366,-2.69217 z"
           id="path8519"
           inkscape:connector-curvature="0" />
        <path
           style="fill:#ffffff;stroke:none;stroke-width:0.99999994px;stroke-linecap:butt;stroke-linejoin:miter;stroke-opacity:1"
           d="m -1377.2402,2650.5488 c -2.0593,-0.065 -4.1208,0.7747 -5.6075,2.4824 -2.643,3.036 -2.3388,7.5149 0.6934,10.1758 l 19.5742,17.1778 c 0.1895,0.1663 0.3841,0.3215 0.584,0.4648 4e-4,3e-4 0,-3e-4 0,0 0.1994,0.1429 0.4031,0.2745 0.6113,0.3945 8e-4,5e-4 0,0 0,0 0.208,0.1198 0.4197,0.2271 0.6348,0.3242 0.6483,0.2931 1.3251,0.4833 2.0098,0.5723 0.4559,0.059 0.9149,0.073 1.3711,0.043 0.2274,-0.015 0.4545,-0.041 0.6797,-0.078 0.2257,-0.037 0.4519,-0.085 0.6738,-0.1445 0.4432,-0.1186 0.8768,-0.2821 1.2949,-0.4883 0.2093,-0.1032 0.4165,-0.2168 0.6172,-0.3418 0.602,-0.3751 1.1607,-0.8487 1.6562,-1.418 1.1568,-1.3287 1.7491,-2.9329 1.795,-4.541 0.01,-0.2296 0,-0.4585 -0.014,-0.6875 -0.031,-0.4585 -0.1068,-0.9131 -0.2266,-1.3593 -0.06,-0.2229 -0.1293,-0.4428 -0.2109,-0.6602 -0.1633,-0.4348 -0.3709,-0.8563 -0.6211,-1.2598 -0.2502,-0.4034 -0.5446,-0.789 -0.8809,-1.1484 -0.1681,-0.1797 -0.3456,-0.3532 -0.5351,-0.5195 l -19.5762,-17.1778 c -1.3266,-1.1641 -2.9257,-1.762 -4.5273,-1.8125 z"
           id="path8521"
           transform="matrix(0.26458333,0,0,0.26458333,0,-164.70833)"
           inkscape:connector-curvature="0" />
        <path
           style="color:#000000;font-style:normal;font-variant:normal;font-weight:normal;font-stretch:normal;font-size:medium;line-height:normal;font-family:sans-serif;font-variant-ligatures:normal;font-variant-position:normal;font-variant-caps:normal;font-variant-numeric:normal;font-variant-alternates:normal;font-feature-settings:normal;text-indent:0;text-align:start;text-decoration:none;text-decoration-line:none;text-decoration-style:solid;text-decoration-color:#000000;letter-spacing:normal;word-spacing:normal;text-transform:none;writing-mode:lr-tb;direction:ltr;text-orientation:mixed;dominant-baseline:auto;baseline-shift:baseline;text-anchor:start;white-space:normal;shape-padding:0;clip-rule:nonzero;display:inline;overflow:visible;visibility:visible;opacity:1;isolation:auto;mix-blend-mode:normal;color-interpolation:sRGB;color-interpolation-filters:linearRGB;solid-color:#000000;solid-opacity:1;vector-effect:none;fill:#f4b92c;fill-opacity:1;fill-rule:nonzero;stroke:none;stroke-width:1.32291663;stroke-linecap:round;stroke-linejoin:round;stroke-miterlimit:4;stroke-dasharray:none;stroke-dashoffset:0;stroke-opacity:1;paint-order:stroke fill markers;color-rendering:auto;image-rendering:auto;shape-rendering:auto;text-rendering:auto;enable-background:accumulate"
           d="m -365.49122,537.64525 c -0.448,0.51979 -0.38135,1.31513 0.12695,1.76563 l 0.7168,0.63476 c 0.27586,0.24459 0.69843,0.21648 0.93945,-0.0625 l 0.76563,-0.88867 c 0.23537,-0.27392 0.20755,-0.68598 -0.0625,-0.92578 l -0.7168,-0.63477 c -0.63881,-0.49361 -1.30904,-0.40006 -1.76953,0.11133 z"
           id="path8523"
           inkscape:connector-curvature="0"
           sodipodi:nodetypes="cccccccc" />
        <path
           inkscape:connector-curvature="0"
           id="path8525"
           d="m -361.57982,539.7258 a 0.26460978,0.26460978 0 0 0 -0.20117,0.0957 l -0.99024,1.16797 a 0.26471009,0.26471009 0 1 0 0.4043,0.3418 l 0.99023,-1.16602 a 0.26460978,0.26460978 0 0 0 -0.20312,-0.43945 z"
           style="color:#000000;font-style:normal;font-variant:normal;font-weight:normal;font-stretch:normal;font-size:medium;line-height:normal;font-family:sans-serif;font-variant-ligatures:normal;font-variant-position:normal;font-variant-caps:normal;font-variant-numeric:normal;font-variant-alternates:normal;font-feature-settings:normal;text-indent:0;text-align:start;text-decoration:none;text-decoration-line:none;text-decoration-style:solid;text-decoration-color:#000000;letter-spacing:normal;word-spacing:normal;text-transform:none;writing-mode:lr-tb;direction:ltr;text-orientation:mixed;dominant-baseline:auto;baseline-shift:baseline;text-anchor:start;white-space:normal;shape-padding:0;clip-rule:nonzero;display:inline;overflow:visible;visibility:visible;opacity:1;isolation:auto;mix-blend-mode:normal;color-interpolation:sRGB;color-interpolation-filters:linearRGB;solid-color:#000000;solid-opacity:1;vector-effect:none;fill:#f4b92c;fill-opacity:1;fill-rule:nonzero;stroke:none;stroke-width:0.52916664;stroke-linecap:round;stroke-linejoin:miter;stroke-miterlimit:4;stroke-dasharray:none;stroke-dashoffset:0;stroke-opacity:1;color-rendering:auto;image-rendering:auto;shape-rendering:auto;text-rendering:auto;enable-background:accumulate" />
        <path
           inkscape:connector-curvature="0"
           id="path8527"
           d="m -360.86888,540.32931 a 0.26460978,0.26460978 0 0 0 -0.20117,0.0957 l -0.98829,1.16797 a 0.26460978,0.26460978 0 1 0 0.40235,0.34179 l 0.99023,-1.16601 a 0.26460978,0.26460978 0 0 0 -0.20312,-0.43946 z"
           style="color:#000000;font-style:normal;font-variant:normal;font-weight:normal;font-stretch:normal;font-size:medium;line-height:normal;font-family:sans-serif;font-variant-ligatures:normal;font-variant-position:normal;font-variant-caps:normal;font-variant-numeric:normal;font-variant-alternates:normal;font-feature-settings:normal;text-indent:0;text-align:start;text-decoration:none;text-decoration-line:none;text-decoration-style:solid;text-decoration-color:#000000;letter-spacing:normal;word-spacing:normal;text-transform:none;writing-mode:lr-tb;direction:ltr;text-orientation:mixed;dominant-baseline:auto;baseline-shift:baseline;text-anchor:start;white-space:normal;shape-padding:0;clip-rule:nonzero;display:inline;overflow:visible;visibility:visible;opacity:1;isolation:auto;mix-blend-mode:normal;color-interpolation:sRGB;color-interpolation-filters:linearRGB;solid-color:#000000;solid-opacity:1;vector-effect:none;fill:#f4b92c;fill-opacity:1;fill-rule:nonzero;stroke:none;stroke-width:0.52916664;stroke-linecap:round;stroke-linejoin:miter;stroke-miterlimit:4;stroke-dasharray:none;stroke-dashoffset:0;stroke-opacity:1;color-rendering:auto;image-rendering:auto;shape-rendering:auto;text-rendering:auto;enable-background:accumulate" />
      </g>
    </g>
  </g>
</svg>
